<svg width="375" height="24" viewBox="0 0 375 24" fill="none" xmlns="http://www.w3.org/2000/svg">
<rect width="375" height="24" fill="black"/>
<path fill-rule="evenodd" clip-rule="evenodd" d="M89.9958 8.52088C91.9355 8.52088 93.7034 9.23545 95.0589 10.4072L96 9.36811C94.3946 7.97447 92.2979 7 89.9958 7C87.6971 7 85.6034 7.97151 84 9.36071L84.9391 10.4013C86.2936 9.23299 88.0585 8.52088 89.9958 8.52088Z" fill="#FCFCFC"/>
<path fill-rule="evenodd" clip-rule="evenodd" d="M89.9958 11.5202C91.1584 11.5202 92.2205 11.9424 93.0397 12.6377L94.0353 11.538C92.9517 10.6079 91.5422 10.0003 89.9958 10.0003C88.4524 10.0003 87.0439 10.6064 85.9613 11.5335L86.9554 12.6347C87.7741 11.9409 88.8347 11.5202 89.9958 11.5202Z" fill="#FCFCFC"/>
<path fill-rule="evenodd" clip-rule="evenodd" d="M92.0434 13.7374C91.4891 13.2773 90.7754 12.9587 89.9952 12.9587C89.2165 12.9587 88.5038 13.2768 87.9495 13.735L89.9952 16L92.0434 13.7374Z" fill="#FCFCFC"/>
<path fill-rule="evenodd" clip-rule="evenodd" d="M8.75 14.5C10.2688 14.5 11.5 13.2688 11.5 11.75C11.5 10.2312 10.2688 9 8.75 9C7.23122 9 6 10.2312 6 11.75C6 13.2688 7.23122 14.5 8.75 14.5Z" fill="white"/>
<path fill-rule="evenodd" clip-rule="evenodd" d="M15.75 14.5C17.2688 14.5 18.5 13.2688 18.5 11.75C18.5 10.2312 17.2688 9 15.75 9C14.2312 9 13 10.2312 13 11.75C13 13.2688 14.2312 14.5 15.75 14.5Z" fill="white"/>
<path fill-rule="evenodd" clip-rule="evenodd" d="M22.75 14.5C24.2688 14.5 25.5 13.2688 25.5 11.75C25.5 10.2312 24.2688 9 22.75 9C21.2312 9 20 10.2312 20 11.75C20 13.2688 21.2312 14.5 22.75 14.5Z" fill="white"/>
<path fill-rule="evenodd" clip-rule="evenodd" d="M29.75 14C30.9926 14 32 12.9926 32 11.75C32 10.5074 30.9926 9.5 29.75 9.5C28.5074 9.5 27.5 10.5074 27.5 11.75C27.5 12.9926 28.5074 14 29.75 14ZM29.75 14.5C28.2312 14.5 27 13.2688 27 11.75C27 10.2312 28.2312 9 29.75 9C31.2688 9 32.5 10.2312 32.5 11.75C32.5 13.2688 31.2688 14.5 29.75 14.5Z" fill="white"/>
<path fill-rule="evenodd" clip-rule="evenodd" d="M36.75 14C37.9926 14 39 12.9926 39 11.75C39 10.5074 37.9926 9.5 36.75 9.5C35.5074 9.5 34.5 10.5074 34.5 11.75C34.5 12.9926 35.5074 14 36.75 14ZM36.75 14.5C35.2312 14.5 34 13.2688 34 11.75C34 10.2312 35.2312 9 36.75 9C38.2688 9 39.5 10.2312 39.5 11.75C39.5 13.2688 38.2688 14.5 36.75 14.5Z" fill="white"/>
<path d="M43.5254 6.89258H49.4961V7.94727H44.6914V10.5605H48.916V11.5859H44.6914V15.5H43.5254V6.89258ZM50.6094 9.25391H51.6816V15.5H50.6094V9.25391ZM50.6094 6.89258H51.6816V8.08789H50.6094V6.89258ZM55.4961 9.11328C55.9883 9.11328 56.418 9.23438 56.7852 9.47656C56.9844 9.61328 57.1875 9.8125 57.3945 10.0742V9.2832H58.3672V14.9902C58.3672 15.7871 58.25 16.416 58.0156 16.877C57.5781 17.7285 56.752 18.1543 55.5371 18.1543C54.8613 18.1543 54.293 18.002 53.832 17.6973C53.3711 17.3965 53.1133 16.9238 53.0586 16.2793H54.1309C54.1816 16.5605 54.2832 16.7773 54.4355 16.9297C54.6738 17.1641 55.0488 17.2812 55.5605 17.2812C56.3691 17.2812 56.8984 16.9961 57.1484 16.4258C57.2969 16.0898 57.3652 15.4902 57.3535 14.627C57.1426 14.9473 56.8887 15.1855 56.5918 15.3418C56.2949 15.498 55.9023 15.5762 55.4141 15.5762C54.7344 15.5762 54.1387 15.3359 53.627 14.8555C53.1191 14.3711 52.8652 13.5723 52.8652 12.459C52.8652 11.4082 53.1211 10.5879 53.6328 9.99805C54.1484 9.4082 54.7695 9.11328 55.4961 9.11328ZM57.3945 12.3359C57.3945 11.5586 57.2344 10.9824 56.9141 10.6074C56.5938 10.2324 56.1855 10.0449 55.6895 10.0449C54.9473 10.0449 54.4395 10.3926 54.166 11.0879C54.0215 11.459 53.9492 11.9453 53.9492 12.5469C53.9492 13.2539 54.0918 13.793 54.377 14.1641C54.666 14.5312 55.0527 14.7148 55.5371 14.7148C56.2949 14.7148 56.8281 14.373 57.1367 13.6895C57.3086 13.3027 57.3945 12.8516 57.3945 12.3359ZM59.9609 9.22461H61.0039V10.1152C61.2539 9.80664 61.4805 9.58203 61.6836 9.44141C62.0312 9.20312 62.4258 9.08398 62.8672 9.08398C63.3672 9.08398 63.7695 9.20703 64.0742 9.45312C64.2461 9.59375 64.4023 9.80078 64.543 10.0742C64.7773 9.73828 65.0527 9.49023 65.3691 9.33008C65.6855 9.16602 66.041 9.08398 66.4355 9.08398C67.2793 9.08398 67.8535 9.38867 68.1582 9.99805C68.3223 10.3262 68.4043 10.7676 68.4043 11.3223V15.5H67.3086V11.1406C67.3086 10.7227 67.2031 10.4355 66.9922 10.2793C66.7852 10.123 66.5312 10.0449 66.2305 10.0449C65.8164 10.0449 65.459 10.1836 65.1582 10.4609C64.8613 10.7383 64.7129 11.2012 64.7129 11.8496V15.5H63.6406V11.4043C63.6406 10.9785 63.5898 10.668 63.4883 10.4727C63.3281 10.1797 63.0293 10.0332 62.5918 10.0332C62.1934 10.0332 61.8301 10.1875 61.502 10.4961C61.1777 10.8047 61.0156 11.3633 61.0156 12.1719V15.5H59.9609V9.22461ZM70.7656 13.8301C70.7656 14.1348 70.877 14.375 71.0996 14.5508C71.3223 14.7266 71.5859 14.8145 71.8906 14.8145C72.2617 14.8145 72.6211 14.7285 72.9688 14.5566C73.5547 14.2715 73.8477 13.8047 73.8477 13.1562V12.3066C73.7188 12.3887 73.5527 12.457 73.3496 12.5117C73.1465 12.5664 72.9473 12.6055 72.752 12.6289L72.1133 12.7109C71.7305 12.7617 71.4434 12.8418 71.252 12.9512C70.9277 13.1348 70.7656 13.4277 70.7656 13.8301ZM73.3203 11.6973C73.5625 11.666 73.7246 11.5645 73.8066 11.3926C73.8535 11.2988 73.877 11.1641 73.877 10.9883C73.877 10.6289 73.748 10.3691 73.4902 10.209C73.2363 10.0449 72.8711 9.96289 72.3945 9.96289C71.8438 9.96289 71.4531 10.1113 71.2227 10.4082C71.0938 10.5723 71.0098 10.8164 70.9707 11.1406H69.9863C70.0059 10.3672 70.2559 9.83008 70.7363 9.5293C71.2207 9.22461 71.7812 9.07227 72.418 9.07227C73.1562 9.07227 73.7559 9.21289 74.2168 9.49414C74.6738 9.77539 74.9023 10.2129 74.9023 10.8066V14.4219C74.9023 14.5312 74.9238 14.6191 74.9668 14.6855C75.0137 14.752 75.1094 14.7852 75.2539 14.7852C75.3008 14.7852 75.3535 14.7832 75.4121 14.7793C75.4707 14.7715 75.5332 14.7617 75.5996 14.75V15.5293C75.4355 15.5762 75.3105 15.6055 75.2246 15.6172C75.1387 15.6289 75.0215 15.6348 74.873 15.6348C74.5098 15.6348 74.2461 15.5059 74.082 15.248C73.9961 15.1113 73.9355 14.918 73.9004 14.668C73.6855 14.9492 73.377 15.1934 72.9746 15.4004C72.5723 15.6074 72.1289 15.7109 71.6445 15.7109C71.0625 15.7109 70.5859 15.5352 70.2148 15.1836C69.8477 14.8281 69.6641 14.3848 69.6641 13.8535C69.6641 13.2715 69.8457 12.8203 70.209 12.5C70.5723 12.1797 71.0488 11.9824 71.6387 11.9082L73.3203 11.6973Z" fill="white"/>
<path fill-rule="evenodd" clip-rule="evenodd" d="M346.002 7.02632C345.447 7.02632 345 7.49554 345 8.07901V14.921C345 15.5019 345.449 15.9737 346.002 15.9737H365.498C366.053 15.9737 366.5 15.5045 366.5 14.921V8.07901C366.5 7.49811 366.051 7.02632 365.498 7.02632H346.002ZM346.002 6.5H365.498C366.327 6.5 367 7.20695 367 8.07901V14.921C367 15.7968 366.327 16.5 365.498 16.5H346.002C345.173 16.5 344.5 15.7931 344.5 14.921V8.07901C344.5 7.20318 345.173 6.5 346.002 6.5Z" fill="white"/>
<path fill-rule="evenodd" clip-rule="evenodd" d="M346 7.5C345.724 7.5 345.5 7.72386 345.5 8V15C345.5 15.2761 345.724 15.5 346 15.5H354.5V7.5H346Z" fill="white"/>
<path fill-rule="evenodd" clip-rule="evenodd" d="M369 11.7323C369 12.6139 368.348 13.3432 367.5 13.4646V10C368.348 10.1213 369 10.8507 369 11.7323Z" fill="white"/>
<path d="M318.467 12.5293V8.72656L315.777 12.5293H318.467ZM318.484 15.5V13.4492H314.805V12.418L318.648 7.08594H319.539V12.5293H320.775V13.4492H319.539V15.5H318.484ZM321.555 15.5C321.594 14.7773 321.742 14.1484 322 13.6133C322.262 13.0781 322.77 12.5918 323.523 12.1543L324.648 11.5039C325.152 11.2109 325.506 10.9609 325.709 10.7539C326.029 10.4297 326.189 10.0586 326.189 9.64062C326.189 9.15234 326.043 8.76562 325.75 8.48047C325.457 8.19141 325.066 8.04688 324.578 8.04688C323.855 8.04688 323.355 8.32031 323.078 8.86719C322.93 9.16016 322.848 9.56641 322.832 10.0859H321.76C321.771 9.35547 321.906 8.75977 322.164 8.29883C322.621 7.48633 323.428 7.08008 324.584 7.08008C325.545 7.08008 326.246 7.33984 326.688 7.85938C327.133 8.37891 327.355 8.95703 327.355 9.59375C327.355 10.2656 327.119 10.8398 326.646 11.3164C326.373 11.5938 325.883 11.9297 325.176 12.3242L324.373 12.7695C323.99 12.9805 323.689 13.1816 323.471 13.373C323.08 13.7129 322.834 14.0898 322.732 14.5039H327.314V15.5H321.555ZM336.039 11.4219C336.602 11.4219 337.082 11.6211 337.48 12.0195C337.879 12.418 338.078 12.8984 338.078 13.4609C338.078 14.0234 337.879 14.5039 337.48 14.9023C337.082 15.3008 336.602 15.5 336.039 15.5C335.473 15.5 334.99 15.3008 334.592 14.9023C334.193 14.5039 333.994 14.0234 333.994 13.4609C333.994 12.8984 334.193 12.418 334.592 12.0195C334.99 11.6211 335.473 11.4219 336.039 11.4219ZM335.189 7.14453H335.84L331.146 15.7227H330.496L335.189 7.14453ZM330.285 10.6133C330.621 10.6133 330.906 10.4961 331.141 10.2617C331.379 10.0234 331.498 9.73828 331.498 9.40625C331.498 9.07422 331.379 8.79102 331.141 8.55664C330.906 8.31836 330.621 8.19922 330.285 8.19922C329.953 8.19922 329.668 8.31641 329.43 8.55078C329.195 8.78516 329.078 9.07031 329.078 9.40625C329.078 9.73828 329.195 10.0234 329.43 10.2617C329.668 10.4961 329.953 10.6133 330.285 10.6133ZM330.285 7.36133C330.852 7.36133 331.334 7.5625 331.732 7.96484C332.131 8.36328 332.33 8.84375 332.33 9.40625C332.33 9.96875 332.131 10.4492 331.732 10.8477C331.334 11.2461 330.852 11.4453 330.285 11.4453C329.723 11.4453 329.242 11.2461 328.844 10.8477C328.445 10.4492 328.246 9.96875 328.246 9.40625C328.246 8.84375 328.445 8.36328 328.844 7.96484C329.242 7.5625 329.723 7.36133 330.285 7.36133ZM336.039 14.668C336.371 14.668 336.654 14.5508 336.889 14.3164C337.127 14.0781 337.246 13.793 337.246 13.4609C337.246 13.1289 337.127 12.8457 336.889 12.6113C336.654 12.373 336.371 12.2539 336.039 12.2539C335.703 12.2539 335.416 12.373 335.178 12.6113C334.943 12.8457 334.826 13.1289 334.826 13.4609C334.826 13.793 334.943 14.0781 335.178 14.3164C335.416 14.5508 335.703 14.668 336.039 14.668Z" fill="white"/>
<path d="M304.5 9L309.5 14L307.357 16.5V6.5L309.5 9L304.5 14" stroke="#FCFCFC" stroke-linecap="square"/>
<path d="M165.094 13.4727C165.125 14.0547 165.35 14.457 165.768 14.6797C165.982 14.7969 166.225 14.8555 166.494 14.8555C166.998 14.8555 167.428 14.6465 167.783 14.2285C168.139 13.8066 168.391 12.9531 168.539 11.668C168.305 12.0391 168.014 12.3008 167.666 12.4531C167.322 12.6016 166.951 12.6758 166.553 12.6758C165.744 12.6758 165.104 12.4238 164.631 11.9199C164.162 11.416 163.928 10.7676 163.928 9.97461C163.928 9.21289 164.16 8.54297 164.625 7.96484C165.09 7.38672 165.775 7.09766 166.682 7.09766C167.904 7.09766 168.748 7.64844 169.213 8.75C169.471 9.35547 169.6 10.1133 169.6 11.0234C169.6 12.0508 169.445 12.9609 169.137 13.7539C168.625 15.0742 167.758 15.7344 166.535 15.7344C165.715 15.7344 165.092 15.5195 164.666 15.0898C164.24 14.6602 164.027 14.1211 164.027 13.4727H165.094ZM166.693 11.75C167.111 11.75 167.492 11.6133 167.836 11.3398C168.184 11.0625 168.357 10.5801 168.357 9.89258C168.357 9.27539 168.201 8.81641 167.889 8.51562C167.58 8.21094 167.186 8.05859 166.705 8.05859C166.189 8.05859 165.779 8.23242 165.475 8.58008C165.174 8.92383 165.023 9.38477 165.023 9.96289C165.023 10.5098 165.156 10.9453 165.422 11.2695C165.688 11.5898 166.111 11.75 166.693 11.75ZM171.51 9.30664H172.734V10.584H171.51V9.30664ZM171.51 14.2227H172.734V15.5H171.51V14.2227ZM177.486 12.5293V8.72656L174.797 12.5293H177.486ZM177.504 15.5V13.4492H173.824V12.418L177.668 7.08594H178.559V12.5293H179.795V13.4492H178.559V15.5H177.504ZM180.574 15.5C180.613 14.7773 180.762 14.1484 181.02 13.6133C181.281 13.0781 181.789 12.5918 182.543 12.1543L183.668 11.5039C184.172 11.2109 184.525 10.9609 184.729 10.7539C185.049 10.4297 185.209 10.0586 185.209 9.64062C185.209 9.15234 185.062 8.76562 184.77 8.48047C184.477 8.19141 184.086 8.04688 183.598 8.04688C182.875 8.04688 182.375 8.32031 182.098 8.86719C181.949 9.16016 181.867 9.56641 181.852 10.0859H180.779C180.791 9.35547 180.926 8.75977 181.184 8.29883C181.641 7.48633 182.447 7.08008 183.604 7.08008C184.564 7.08008 185.266 7.33984 185.707 7.85938C186.152 8.37891 186.375 8.95703 186.375 9.59375C186.375 10.2656 186.139 10.8398 185.666 11.3164C185.393 11.5938 184.902 11.9297 184.195 12.3242L183.393 12.7695C183.01 12.9805 182.709 13.1816 182.49 13.373C182.1 13.7129 181.854 14.0898 181.752 14.5039H186.334V15.5H180.574ZM195.551 11.9727L194.244 8.16992L192.855 11.9727H195.551ZM193.635 6.89258H194.953L198.076 15.5H196.799L195.926 12.9219H192.521L191.59 15.5H190.395L193.635 6.89258ZM199.107 6.89258H200.777L203.25 14.1699L205.705 6.89258H207.357V15.5H206.25V10.4199C206.25 10.2441 206.254 9.95312 206.262 9.54688C206.27 9.14062 206.273 8.70508 206.273 8.24023L203.818 15.5H202.664L200.191 8.24023V8.50391C200.191 8.71484 200.195 9.03711 200.203 9.4707C200.215 9.90039 200.221 10.2168 200.221 10.4199V15.5H199.107V6.89258Z" fill="white"/>
</svg>
